<?xml version="1.0" encoding="UTF-8"?>
<svg xmlns="http://www.w3.org/2000/svg" xmlns:xlink="http://www.w3.org/1999/xlink" version="1.1" viewBox="0 0 1054.47 241.29">
  <!-- Generator: Adobe Illustrator 30.0.0, SVG Export Plug-In . SVG Version: 2.1.1 Build 123)  -->
  <defs>
    <style>
      .st0 {
        mix-blend-mode: multiply;
        opacity: .64;
      }

      .st1 {
        fill: url(#linear-gradient);
      }

      .st2 {
        isolation: isolate;
      }

      .st3 {
        fill: #b40838;
      }

      .st4 {
        fill: #1c1b1a;
      }

      .st5 {
        fill: #1c1b1a;
      }
    </style>
    <linearGradient id="linear-gradient" x1="-2038.46" y1="136.87" x2="-1965.13" y2="136.87" gradientTransform="translate(2100)" gradientUnits="userSpaceOnUse">
      <stop offset="0" stop-color="#fff" stop-opacity="0"/>
      <stop offset=".48" stop-color="#000"/>
      <stop offset="1" stop-color="#fff" stop-opacity="0"/>
    </linearGradient>
  </defs>
  <g class="st2">
    <g id="Layer_1">
      <rect class="st5" x="347.38" y="8.46" width="1.03" height="226.26"/>
      <g>
        <g>
          <path class="st5" d="M221.82,90.99l-8.9,17.22v8.5h-6.26v-8.5l-8.9-17.22h7.11l4.98,10.77,4.95-10.77h7.03Z"/>
          <path class="st5" d="M230.61,96.01v5.2h8.39v4.84h-8.39v5.64h9.49v5.02h-15.75v-25.71h15.75v5.02h-9.49Z"/>
          <path class="st5" d="M260.17,112.16h-9.6l-1.54,4.54h-6.56l9.3-25.71h7.25l9.3,25.71h-6.63l-1.54-4.54ZM258.56,107.33l-3.19-9.41-3.15,9.41h6.34Z"/>
          <path class="st5" d="M284.27,116.7l-5.35-9.71h-1.5v9.71h-6.26v-25.71h10.51c2.03,0,3.75.35,5.18,1.06,1.43.71,2.5,1.68,3.21,2.91.71,1.23,1.06,2.61,1.06,4.12,0,1.71-.48,3.24-1.45,4.58-.96,1.34-2.39,2.3-4.27,2.86l5.93,10.18h-7.07ZM277.42,102.56h3.88c1.15,0,2.01-.28,2.58-.84.57-.56.86-1.36.86-2.38s-.29-1.75-.86-2.31c-.57-.56-1.43-.84-2.58-.84h-3.88v6.37Z"/>
          <path class="st5" d="M299.29,116.04c-1.49-.61-2.68-1.51-3.57-2.71-.89-1.2-1.36-2.64-1.41-4.32h6.67c.1.95.43,1.68.99,2.18.56.5,1.29.75,2.2.75s1.66-.21,2.2-.64.81-1.02.81-1.78c0-.63-.21-1.16-.64-1.58-.43-.42-.95-.76-1.58-1.03-.62-.27-1.51-.57-2.66-.92-1.66-.51-3.02-1.03-4.07-1.54-1.05-.51-1.95-1.27-2.71-2.27-.76-1-1.14-2.31-1.14-3.92,0-2.39.87-4.27,2.6-5.62,1.73-1.36,3.99-2.03,6.78-2.03s5.12.68,6.85,2.03c1.73,1.36,2.66,3.24,2.78,5.66h-6.78c-.05-.83-.35-1.48-.92-1.96-.56-.48-1.28-.71-2.16-.71-.76,0-1.37.2-1.83.6s-.7.98-.7,1.74c0,.83.39,1.48,1.17,1.94.78.46,2,.96,3.66,1.5,1.66.56,3.01,1.1,4.05,1.61,1.04.51,1.94,1.26,2.69,2.23.76.98,1.14,2.23,1.14,3.77s-.37,2.8-1.12,3.99c-.75,1.2-1.83,2.15-3.24,2.86s-3.09,1.06-5.02,1.06-3.57-.31-5.05-.92Z"/>
        </g>
        <g>
          <path class="st5" d="M214.58,147.76h-9.6l-1.54,4.54h-6.56l9.3-25.71h7.25l9.3,25.71h-6.63l-1.54-4.54ZM212.97,142.93l-3.19-9.41-3.15,9.41h6.34Z"/>
          <path class="st5" d="M248.57,152.31h-6.26l-10.48-15.86v15.86h-6.26v-25.71h6.26l10.48,15.93v-15.93h6.26v25.71Z"/>
          <path class="st5" d="M257.36,151.65c-1.49-.61-2.68-1.51-3.57-2.71-.89-1.2-1.36-2.64-1.41-4.32h6.67c.1.95.43,1.68.99,2.18.56.5,1.29.75,2.2.75s1.66-.21,2.2-.64c.54-.43.81-1.02.81-1.78,0-.63-.21-1.16-.64-1.58-.43-.42-.95-.76-1.58-1.03-.62-.27-1.51-.57-2.66-.92-1.66-.51-3.02-1.03-4.07-1.54s-1.95-1.27-2.71-2.27c-.76-1-1.14-2.31-1.14-3.92,0-2.39.87-4.27,2.6-5.62,1.73-1.36,3.99-2.03,6.78-2.03s5.12.68,6.85,2.03c1.73,1.36,2.66,3.24,2.78,5.66h-6.78c-.05-.83-.35-1.48-.92-1.96-.56-.48-1.28-.71-2.16-.71-.76,0-1.37.2-1.83.6s-.7.98-.7,1.74c0,.83.39,1.48,1.17,1.94.78.46,2,.96,3.66,1.5,1.66.56,3.01,1.1,4.05,1.61s1.94,1.26,2.69,2.23c.76.98,1.14,2.23,1.14,3.77s-.37,2.8-1.12,3.99c-.75,1.2-1.83,2.15-3.24,2.86-1.42.71-3.09,1.06-5.02,1.06s-3.57-.31-5.05-.92Z"/>
        </g>
      </g>
      <g>
        <g>
          <path class="st3" d="M134.87,200.67c-26.75,0-48.52-21.77-48.52-48.52v-30.55c0-26.75,21.77-48.52,48.52-48.52s48.52,21.77,48.52,48.52v30.55c0,26.75-21.77,48.52-48.52,48.52ZM134.87,96.79c-13.68,0-24.81,11.13-24.81,24.81v30.55c0,13.68,11.13,24.81,24.81,24.81s24.81-11.13,24.81-24.81v-30.55c0-13.68-11.13-24.81-24.81-24.81Z"/>
          <path class="st3" d="M61.54,200.67c-26.75,0-48.52-21.77-48.52-48.52v-5.4h23.71v5.4c0,13.68,11.13,24.81,24.81,24.81s24.81-11.13,24.81-24.81v-18.33c0-13.68-11.13-24.81-24.81-24.81-6.94,0-15.43,3.23-20.65,7.85l-3.36,2.98h-20.58l6.08-77.31h75.08v23.71h-53.16l-1.76,22.39c5.99-2.15,12.3-3.33,18.36-3.33,26.75,0,48.52,21.77,48.52,48.52v18.33c0,26.75-21.77,48.52-48.52,48.52Z"/>
        </g>
        <g class="st0">
          <path class="st1" d="M110.06,152.15c0,12.12-4.48,23.21-11.86,31.73,8.9,10.28,22.03,16.79,36.66,16.79v-23.71c-13.68,0-24.81-11.13-24.81-24.81ZM61.54,109.01c13.68,0,24.81,11.13,24.81,24.81v-12.22c0-8.98,2.46-17.39,6.73-24.61-8.49-7.28-19.5-11.69-31.54-11.69v23.71Z"/>
        </g>
      </g>
      <g>
        <path class="st3" d="M468.06,57.18c-4.52,3.22-8.78,7.02-12.86,11.08-20.53-8.93-40.37-7.48-55.09,5.79-17.41,15.72-21.5,40.32-10.94,65.83,12.89,31.14,48.18,63.12,88.33,61.42,38.55,0,73.68-24.67,89.51-62.84,4.94-11.93,7.36-23.92,7.36-35.25,0-18.01-6.13-34.37-18.02-46.26-21.94-21.94-57.43-21.86-88.29.23ZM410.59,131.02c-1.96-4.72-4.08-11.47-4.08-18.58s2.23-14.95,9.13-21.17c6.87-6.21,15.6-6.69,24.54-4.04-8.01,13.08-13.14,28.12-13.14,44.02,0,9.95,2.35,20.22,6.79,30.51-10.33-8.64-18.65-19.64-23.25-30.74ZM477.07,171c-9.22-1.23-18.33-10.1-21.1-15.77-3.93-8.01-5.65-16.08-5.65-23.91,0-11.91,4.05-23.25,10.33-33.14,3.6,2.72,7.05,5.64,10.16,8.72,15.53,15.34,25.23,34.25,25.23,46.87,0,4.07-1,7.48-3.15,9.91-5,5.68-10.17,8.07-15.81,7.32ZM481.53,76.03c16.45-11.76,41.61-19.51,58.44-2.7,7.43,7.44,11.22,17.97,11.22,29.88,0,8.32-1.85,17.3-5.61,26.37-5.08,12.28-14.56,25.54-27.79,35.15.94-3.5,1.53-7.13,1.53-10.9,0-20.85-13.65-45.09-32.23-63.42-3.74-3.69-7.56-6.76-11.39-9.74,1.89-1.65,3.84-3.21,5.82-4.63Z"/>
        <g>
          <path class="st4" d="M608.09,181.35h7.66c3.91,0,9.77,2.62,9.77,9.97s-5.86,9.97-9.77,9.97h-7.66v-19.94ZM610.45,199.09h4.51c4.56,0,8.03-2.31,8.03-7.77s-3.46-7.77-8.03-7.77h-4.51v15.54Z"/>
          <path class="st4" d="M632.19,181.35h12.53v2.2h-10.17v6.25h9.49v2.2h-9.49v7.1h10.67v2.2h-13.04v-19.94Z"/>
          <path class="st4" d="M662.47,181.35h2.36v17.74h9.13v2.2h-11.49v-19.94Z"/>
          <path class="st4" d="M678.69,188.11h-2.14l1.89-6.76h2.56l-2.31,6.76Z"/>
          <path class="st4" d="M702.99,193.69c0,4.34-2.03,8.11-7.52,8.11s-7.52-3.77-7.52-8.11v-12.33h2.36v12c0,3.21,1.18,6.25,5.15,6.25s5.15-3.04,5.15-6.25v-12h2.37v12.33Z"/>
          <path class="st4" d="M710.74,181.35h2.99l11.55,16.56h.06v-16.56h2.37v19.94h-2.99l-11.55-16.56h-.06v16.56h-2.37v-19.94Z"/>
          <path class="st4" d="M735.52,181.35h2.37v19.94h-2.37v-19.94Z"/>
          <path class="st4" d="M742.98,181.35h2.67l6.14,16.39h.06l6.34-16.39h2.5l-7.8,19.94h-2.28l-7.63-19.94Z"/>
          <path class="st4" d="M765.79,181.35h12.53v2.2h-10.17v6.25h9.49v2.2h-9.49v7.1h10.67v2.2h-13.04v-19.94Z"/>
          <path class="st4" d="M785.36,181.35h5.1c3.86,0,7.94.56,7.94,5.49,0,2.9-1.89,4.79-4.99,5.27l5.66,9.18h-2.9l-5.41-8.96h-3.04v8.96h-2.36v-19.94ZM787.73,190.14h2.11c2.62,0,6.03,0,6.03-3.29,0-2.87-2.51-3.3-4.82-3.3h-3.32v6.59Z"/>
          <path class="st4" d="M814.9,184.87c-.79-1.27-2.19-1.83-3.63-1.83-2.08,0-4.25.99-4.25,3.35,0,1.83,1.01,2.65,4.19,3.66,3.1.99,5.97,2,5.97,5.92s-3.41,5.83-7.01,5.83c-2.31,0-4.79-.76-6.14-2.76l2.03-1.66c.84,1.46,2.54,2.22,4.25,2.22,2.03,0,4.34-1.18,4.34-3.46,0-2.45-1.66-2.87-5.21-4.05-2.82-.93-4.96-2.17-4.96-5.49,0-3.83,3.29-5.75,6.79-5.75,2.22,0,4.11.62,5.58,2.34l-1.94,1.69Z"/>
          <path class="st4" d="M823.97,181.35h2.37v19.94h-2.37v-19.94Z"/>
          <path class="st4" d="M847.54,183.55h-6.59v17.74h-2.37v-17.74h-6.59v-2.2h15.55v2.2Z"/>
          <path class="st4" d="M853.2,181.35h12.53v2.2h-10.16v6.25h9.49v2.2h-9.49v7.1h10.67v2.2h-13.04v-19.94ZM860.08,175.89h3.1l-4.03,4.06h-2l2.93-4.06Z"/>
          <path class="st4" d="M883.11,181.35h7.66c3.91,0,9.77,2.62,9.77,9.97s-5.86,9.97-9.77,9.97h-7.66v-19.94ZM885.48,199.09h4.5c4.56,0,8.03-2.31,8.03-7.77s-3.47-7.77-8.03-7.77h-4.5v15.54Z"/>
          <path class="st4" d="M908.57,188.11h-2.14l1.89-6.76h2.56l-2.31,6.76Z"/>
          <path class="st4" d="M915.07,191.32c0-6.03,4.37-10.48,10.42-10.48s10.42,4.45,10.42,10.48-4.37,10.48-10.42,10.48-10.42-4.45-10.42-10.48ZM933.38,191.32c0-4.59-3.21-8.28-7.88-8.28s-7.89,3.69-7.89,8.28,3.21,8.28,7.89,8.28,7.88-3.69,7.88-8.28Z"/>
          <path class="st4" d="M955.97,183.55h-6.59v17.74h-2.37v-17.74h-6.59v-2.2h15.55v2.2Z"/>
          <path class="st4" d="M975,183.55h-6.59v17.74h-2.37v-17.74h-6.59v-2.2h15.55v2.2Z"/>
          <path class="st4" d="M984.56,181.35h2.22l8.48,19.94h-2.76l-2.03-4.9h-9.97l-2.06,4.9h-2.67l8.79-19.94ZM985.62,184.39h-.05l-4.14,9.8h8.14l-3.94-9.8Z"/>
          <path class="st4" d="M997.79,181.35h2.62l4.53,16.56h.06l4.9-16.56h2.65l4.87,16.56h.06l4.62-16.56h2.48l-5.86,19.94h-2.56l-4.93-16.9h-.06l-4.95,16.9h-2.59l-5.83-19.94Z"/>
          <path class="st4" d="M1035.9,181.35h2.23l8.48,19.94h-2.76l-2.03-4.9h-9.97l-2.06,4.9h-2.67l8.79-19.94ZM1036.97,184.39h-.06l-4.14,9.8h8.14l-3.94-9.8Z"/>
        </g>
        <g>
          <path class="st4" d="M608.32,148.94h4.39v19.94h-4.39v-19.94Z"/>
          <path class="st4" d="M619.53,148.94h5.97l8.48,13.85h.06v-13.85h4.39v19.94h-5.75l-8.7-14.19h-.06v14.19h-4.39v-19.94Z"/>
          <path class="st4" d="M655.16,153.81c-.7-.9-2.11-1.32-3.18-1.32-1.24,0-2.96.56-2.96,2.06,0,3.63,9.18,1.3,9.18,8.28,0,4.45-3.58,6.56-7.69,6.56-2.56,0-4.82-.76-6.7-2.5l3.13-3.44c.9,1.18,2.37,1.89,3.83,1.89s3.04-.67,3.04-2.08c0-3.66-9.35-1.69-9.35-8.33,0-4.25,3.69-6.48,7.6-6.48,2.25,0,4.42.59,6.11,2.08l-3.01,3.29Z"/>
          <path class="st4" d="M668.14,152.83h-5.69v-3.89h15.77v3.89h-5.69v16.05h-4.39v-16.05Z"/>
          <path class="st4" d="M683.2,148.94h4.39v19.94h-4.39v-19.94Z"/>
          <path class="st4" d="M698.27,152.83h-5.69v-3.89h15.77v3.89h-5.69v16.05h-4.39v-16.05Z"/>
          <path class="st4" d="M730.21,161.19c0,4.7-2.87,8.2-8.39,8.2s-8.42-3.49-8.42-8.2v-12.25h4.39v12.08c0,2.45,1.69,4.31,4.03,4.31s4-1.86,4-4.31v-12.08h4.39v12.25Z"/>
          <path class="st4" d="M740.93,152.83h-5.69v-3.89h15.77v3.89h-5.69v16.05h-4.39v-16.05Z"/>
          <path class="st4" d="M767.21,148.94h6.59c6.42,0,11.8,2.73,11.8,10.03,0,6.45-5.27,9.91-11.21,9.91h-7.18v-19.94ZM771.6,164.82h2.28c4.08,0,7.15-1.55,7.15-6.08,0-3.91-3.13-5.74-6.84-5.74h-2.59v11.83Z"/>
          <path class="st4" d="M791.57,148.94h13.55v4.06h-9.15v3.72h8.65v4.06h-8.65v4.06h9.66v4.05h-14.05v-19.94Z"/>
          <path class="st4" d="M836.15,154.12c-.87-1.04-2.14-1.63-3.77-1.63-3.32,0-5.77,2.7-5.77,6.42s2.45,6.42,5.63,6.42c1.77,0,3.21-.79,4.11-2.14l3.66,2.73c-1.66,2.36-4.48,3.46-7.21,3.46-6.22,0-10.76-4.08-10.76-10.47s4.53-10.48,10.76-10.48c2.23,0,5.04.76,6.73,2.93l-3.38,2.76Z"/>
          <path class="st4" d="M851.78,148.94h3.63l8.67,19.94h-4.96l-1.72-4.22h-7.75l-1.66,4.22h-4.84l8.62-19.94ZM853.47,154.74l-2.42,6.19h4.87l-2.45-6.19Z"/>
          <path class="st4" d="M868.9,148.94h7.71c4.08,0,7.52,1.41,7.52,6.05,0,2.79-1.49,4.96-4.31,5.46l5.07,8.42h-5.27l-4.17-7.97h-2.17v7.97h-4.39v-19.94ZM873.29,157.19h2.59c1.61,0,3.69-.06,3.69-2.23,0-2-1.8-2.31-3.41-2.31h-2.87v4.54Z"/>
          <path class="st4" d="M889.96,148.94h6.59c6.42,0,11.8,2.73,11.8,10.03,0,6.45-5.26,9.91-11.21,9.91h-7.18v-19.94ZM894.36,164.82h2.28c4.09,0,7.15-1.55,7.15-6.08,0-3.91-3.12-5.74-6.84-5.74h-2.59v11.83Z"/>
          <path class="st4" d="M914.1,148.94h4.39v19.94h-4.39v-19.94Z"/>
          <path class="st4" d="M934.99,148.43c6.22,0,10.76,4.08,10.76,10.48s-4.53,10.47-10.76,10.47-10.76-4.08-10.76-10.47,4.53-10.48,10.76-10.48ZM934.99,165.33c3.75,0,6.2-2.7,6.2-6.42s-2.45-6.42-6.2-6.42-6.19,2.7-6.19,6.42,2.45,6.42,6.19,6.42Z"/>
          <path class="st4" d="M951.72,148.94h4.39v15.88h8.14v4.05h-12.53v-19.94Z"/>
          <path class="st4" d="M979.18,148.43c6.22,0,10.76,4.08,10.76,10.48s-4.53,10.47-10.76,10.47-10.76-4.08-10.76-10.47,4.53-10.48,10.76-10.48ZM979.18,165.33c3.75,0,6.19-2.7,6.19-6.42s-2.45-6.42-6.19-6.42-6.2,2.7-6.2,6.42,2.45,6.42,6.2,6.42Z"/>
          <path class="st4" d="M1013.79,167.47c-2.59,1.35-5.43,1.91-8.36,1.91-6.22,0-10.76-4.08-10.76-10.47s4.53-10.48,10.76-10.48c3.16,0,5.94.7,7.94,2.56l-3.1,3.38c-1.18-1.24-2.62-1.89-4.85-1.89-3.74,0-6.19,2.7-6.19,6.42s2.45,6.42,6.19,6.42c1.92,0,3.33-.53,4.14-.98v-3.24h-3.58v-4.05h7.8v10.42Z"/>
          <path class="st4" d="M1020.41,148.94h4.39v19.94h-4.39v-19.94Z"/>
          <path class="st4" d="M1031.78,148.94h13.55v4.06h-9.15v3.72h8.64v4.06h-8.64v4.06h9.66v4.05h-14.05v-19.94Z"/>
        </g>
        <g>
          <path class="st4" d="M624.01,81.12c0,4.33-2.03,8.11-7.52,8.11s-7.52-3.78-7.52-8.11v-12.33h2.37v12c0,3.21,1.18,6.25,5.15,6.25s5.15-3.04,5.15-6.25v-12h2.37v12.33Z"/>
          <path class="st4" d="M634.71,68.78h2.98l11.55,16.56h.06v-16.56h2.37v19.94h-2.99l-11.54-16.56h-.06v16.56h-2.36v-19.94Z"/>
          <path class="st4" d="M662.45,68.78h2.37v19.94h-2.37v-19.94Z"/>
          <path class="st4" d="M672.87,68.78h2.67l6.14,16.39h.06l6.34-16.39h2.5l-7.8,19.94h-2.28l-7.63-19.94Z"/>
          <path class="st4" d="M698.64,68.78h12.53v2.2h-10.17v6.25h9.49v2.2h-9.49v7.1h10.67v2.2h-13.04v-19.94Z"/>
          <path class="st4" d="M721.17,68.78h5.1c3.86,0,7.94.56,7.94,5.49,0,2.9-1.89,4.79-4.98,5.27l5.66,9.18h-2.9l-5.41-8.96h-3.04v8.96h-2.36v-19.94ZM723.54,77.57h2.11c2.62,0,6.03,0,6.03-3.29,0-2.87-2.51-3.29-4.82-3.29h-3.32v6.59Z"/>
          <path class="st4" d="M753.67,72.3c-.79-1.27-2.2-1.83-3.63-1.83-2.08,0-4.25.98-4.25,3.35,0,1.83,1.01,2.65,4.2,3.66,3.1.98,5.97,2,5.97,5.91s-3.41,5.83-7.01,5.83c-2.31,0-4.79-.76-6.14-2.76l2.03-1.66c.85,1.47,2.54,2.23,4.25,2.23,2.03,0,4.34-1.18,4.34-3.47,0-2.45-1.66-2.87-5.21-4.05-2.82-.93-4.96-2.17-4.96-5.49,0-3.83,3.29-5.75,6.79-5.75,2.23,0,4.11.62,5.58,2.34l-1.94,1.69Z"/>
          <path class="st4" d="M765.69,68.78h2.37v19.94h-2.37v-19.94Z"/>
          <path class="st4" d="M792.22,70.98h-6.59v17.74h-2.37v-17.74h-6.59v-2.2h15.54v2.2Z"/>
          <path class="st4" d="M805.54,80.13l-7.44-11.35h3.01l5.6,9.01,5.77-9.01h2.84l-7.44,11.35v8.59h-2.36v-8.59Z"/>
          <path class="st4" d="M835.9,78.75c0-6.03,4.37-10.48,10.42-10.48s10.42,4.45,10.42,10.48-4.36,10.48-10.42,10.48-10.42-4.45-10.42-10.48ZM854.2,78.75c0-4.59-3.21-8.28-7.88-8.28s-7.89,3.69-7.89,8.28,3.21,8.28,7.89,8.28,7.88-3.69,7.88-8.28Z"/>
          <path class="st4" d="M866.37,68.78h12.36v2.2h-10v6.59h9.29v2.2h-9.29v8.96h-2.37v-19.94Z"/>
          <path class="st4" d="M900.36,78.75c0-6.03,4.36-10.48,10.42-10.48s10.42,4.45,10.42,10.48-4.36,10.48-10.42,10.48-10.42-4.45-10.42-10.48ZM918.67,78.75c0-4.59-3.21-8.28-7.89-8.28s-7.88,3.69-7.88,8.28,3.21,8.28,7.88,8.28,7.89-3.69,7.89-8.28Z"/>
          <path class="st4" d="M944.21,70.98h-6.59v17.74h-2.36v-17.74h-6.59v-2.2h15.54v2.2Z"/>
          <path class="st4" d="M966.2,70.98h-6.59v17.74h-2.36v-17.74h-6.59v-2.2h15.54v2.2Z"/>
          <path class="st4" d="M978.71,68.78h2.22l8.48,19.94h-2.76l-2.03-4.9h-9.97l-2.05,4.9h-2.68l8.79-19.94ZM979.78,71.82h-.05l-4.14,9.8h8.14l-3.95-9.8Z"/>
          <path class="st4" d="M994.91,68.78h2.62l4.53,16.56h.06l4.9-16.56h2.65l4.87,16.56h.06l4.62-16.56h2.48l-5.86,19.94h-2.56l-4.93-16.9h-.06l-4.95,16.9h-2.59l-5.83-19.94Z"/>
          <path class="st4" d="M1035.97,68.78h2.22l8.48,19.94h-2.76l-2.03-4.9h-9.97l-2.06,4.9h-2.67l8.79-19.94ZM1037.04,71.82h-.06l-4.14,9.8h8.14l-3.94-9.8Z"/>
        </g>
        <g>
          <path class="st5" d="M609.01,99.03h4.39v7.43h8.53v-7.43h4.39v19.94h-4.39v-8.62h-8.53v8.62h-4.39v-19.94Z"/>
          <path class="st5" d="M644.47,99.03h13.55v4.06h-9.15v3.72h8.65v4.05h-8.65v4.06h9.66v4.06h-14.05v-19.94Z"/>
          <path class="st5" d="M682.52,99.03h3.63l8.67,19.94h-4.96l-1.72-4.23h-7.75l-1.66,4.23h-4.84l8.62-19.94ZM684.21,104.83l-2.42,6.19h4.87l-2.45-6.19Z"/>
          <path class="st5" d="M710.73,99.03h7.72c4.08,0,7.52,1.41,7.52,6.06,0,2.79-1.49,4.96-4.31,5.46l5.07,8.42h-5.27l-4.17-7.97h-2.17v7.97h-4.39v-19.94ZM715.13,107.28h2.59c1.6,0,3.69-.06,3.69-2.23,0-2-1.8-2.31-3.41-2.31h-2.87v4.53Z"/>
          <path class="st5" d="M746.25,102.91h-5.69v-3.89h15.77v3.89h-5.69v16.05h-4.39v-16.05Z"/>
          <path class="st5" d="M794.66,99.03h4.39v19.94h-4.39v-19.94Z"/>
          <path class="st5" d="M816.96,99.03h5.97l8.48,13.86h.06v-13.86h4.39v19.94h-5.74l-8.7-14.19h-.06v14.19h-4.39v-19.94Z"/>
          <path class="st5" d="M863.68,103.9c-.71-.9-2.11-1.32-3.18-1.32-1.24,0-2.96.56-2.96,2.06,0,3.63,9.18,1.3,9.18,8.28,0,4.45-3.58,6.56-7.69,6.56-2.56,0-4.82-.76-6.7-2.51l3.13-3.43c.9,1.18,2.36,1.89,3.83,1.89s3.04-.68,3.04-2.08c0-3.66-9.35-1.69-9.35-8.34,0-4.25,3.69-6.47,7.6-6.47,2.25,0,4.42.59,6.11,2.08l-3.01,3.29Z"/>
          <path class="st5" d="M887.76,102.91h-5.69v-3.89h15.77v3.89h-5.69v16.05h-4.39v-16.05Z"/>
          <path class="st5" d="M913.92,99.03h4.39v19.94h-4.39v-19.94Z"/>
          <path class="st5" d="M940.08,102.91h-5.69v-3.89h15.77v3.89h-5.69v16.05h-4.39v-16.05Z"/>
          <path class="st5" d="M983.12,111.28c0,4.7-2.87,8.2-8.39,8.2s-8.42-3.49-8.42-8.2v-12.25h4.39v12.08c0,2.45,1.69,4.31,4.03,4.31s4-1.86,4-4.31v-12.08h4.39v12.25Z"/>
          <path class="st5" d="M1004.94,102.91h-5.69v-3.89h15.77v3.89h-5.69v16.05h-4.39v-16.05Z"/>
          <path class="st5" d="M1031.33,99.03h13.55v4.06h-9.15v3.72h8.65v4.05h-8.65v4.06h9.66v4.06h-14.05v-19.94Z"/>
        </g>
      </g>
    </g>
  </g>
</svg>